<?xml version="1.0" encoding="utf-8"?>
<!-- Generator: Adobe Illustrator 19.2.1, SVG Export Plug-In . SVG Version: 6.00 Build 0)  -->
<svg version="1.1" id="layer" xmlns="http://www.w3.org/2000/svg" xmlns:xlink="http://www.w3.org/1999/xlink" x="0px" y="0px"
	 viewBox="0 0 652 652" style="enable-background:new 0 0 652 652;" xml:space="preserve">
<style type="text/css">
	.st0{fill:#E42313;}
	.st1{fill:#3B3C43;}
	.st2{fill:#051B3E;}
</style>
<path class="st0" d="M229.9,303.6l34.9,34.9h-16.9l-18-17.9V303.6z M229.9,302l34.9-34.9h-16.9l-18,18V302z"/>
<polygon class="st1" points="606.4,325.1 573.9,325.1 573.9,292.6 570.2,292.6 570.2,325.1 537.7,325.1 537.7,328.8 570.2,328.8 
	570.2,361.3 573.9,361.3 573.9,328.8 606.4,328.8 "/>
<path class="st2" d="M545.4,279.6c-2.1,3.8-5,6.3-8.2,7.6c-0.4,0.2-0.4,0.6,0,0.7c3.6,1.6,6.4,4.3,8.6,8.2l7.4,13.1
	c0.3,0.5,0.1,0.9-0.5,0.9h-7.7c-0.4,0-0.7-0.2-0.9-0.5l-5.6-9.8c-2.8-5-6.8-8.4-10.9-8.4h-1.4v17.9c0,0.5-0.2,0.7-0.7,0.7h-7
	c-0.5,0-0.7-0.2-0.7-0.7v-42.1c0-0.5,0.2-0.7,0.7-0.7h7c0.5,0,0.7,0.3,0.7,0.7V284h1.3c4,0,7.9-3.2,10.5-7.8l5.3-9.2
	c0.2-0.3,0.5-0.5,0.9-0.5h7.6c0.6,0,0.8,0.4,0.5,0.9L545.4,279.6z M625.3,267.2c0-0.5-0.2-0.7-0.7-0.7h-7c-0.5,0-0.7,0.2-0.7,0.7
	v20.4c0,3.9,0.1,6.6,0.6,9.8c0.1,0.8-0.5,1.1-0.9,0.2c-0.7-1.4-1.4-2.8-2.2-4.3l-11-19.9c-1.1-1.9-2.3-4.3-3.2-6.4
	c-0.2-0.4-0.4-0.6-0.9-0.6h-9.2c-0.5,0-0.7,0.2-0.7,0.7v42.1c0,0.5,0.2,0.7,0.7,0.7h7.1c0.5,0,0.7-0.2,0.7-0.7v-20.3
	c0-4-0.2-6.6-0.6-10c-0.1-0.7,0.5-1,0.9-0.2c0.7,1.4,1.4,2.8,2.2,4.4l11,19.9c1.1,2,2.2,4.3,3.2,6.4c0.2,0.4,0.4,0.6,0.9,0.6h9.2
	c0.5,0,0.7-0.2,0.7-0.7V267.2z M612.4,369.9c3.5,1.3,5.9,2.9,5.9,5.2c0,3.7-3.3,5-7.3,5c-3.1,0-5.9-0.4-9.4-1.6l-3.9-1.2
	c-0.4-0.2-0.7,0-0.9,0.4l-2,5.8c-0.2,0.4,0,0.7,0.5,0.9l3.7,1.2c4.8,1.6,8.1,2.1,12.1,2.1c10,0,15.9-4.5,15.9-12.7
	c0-6.5-3.2-9.6-11.1-12.6l-6.1-2.2c-4-1.5-5.7-2.9-5.7-5.2c0-2.7,2.7-4.6,6.6-4.6c2.7,0,5.1,0.6,7.6,1.3l3.5,1.1
	c0.4,0.2,0.7,0,0.9-0.4l2.1-5.8c0.2-0.4,0-0.7-0.5-0.9l-3.8-1.2c-3-1-6.3-1.5-9.8-1.5c-9.4,0-15.3,4.4-15.3,12.2
	c0,6.4,3,9.5,11,12.5L612.4,369.9z M518.4,343.5c-0.5,0-0.7,0.2-0.7,0.7v42.1c0,0.5,0.2,0.7,0.7,0.7h14.9c11.9,0,19.4-8.6,19.4-21.7
	c0-13.4-7.3-21.9-19.4-21.9H518.4z M526.2,351h7.2c6.6,0,10.7,5.2,10.7,14.4c0,9-4.1,14.2-10.7,14.2h-7.2V351z"/>
<path class="st1" d="M332.3,280h-25.7v58.5h-12.8V280h-25.7v-12.8h64.2V280z M80.3,267.2H26.9v71.4h12.8V280l40.6,0
	c2.4,0,4.4,2,4.4,4.4l0,54.2h12.8v-54.2C97.4,274.9,89.8,267.2,80.3,267.2 M415.3,338.5h12.8v-54.2c0-2.4,2-4.4,4.4-4.4l29.6,0
	v-12.8h-29.6c-9.5,0-17.2,7.7-17.2,17.2V338.5z M176.2,284.4c0-9.5-7.7-17.2-17.2-17.2h-36.2c-9.5,0-17.2,7.7-17.2,17.2v37
	c0,9.5,7.7,17.2,17.2,17.2l47,0v-12.8h-47c-2.4,0-4.4-2-4.4-4.4v-37c0-2.4,1.9-4.4,4.4-4.4h36.2c2.4,0,4.4,2,4.4,4.4v10
	c0,2.4-2,4.4-4.4,4.4l-27.8,0v12.8h27.8c9.5,0,17.2-7.7,17.2-17.2V284.4z M407,284.4c0-9.5-7.7-17.2-17.2-17.2h-36.2
	c-9.5,0-17.2,7.7-17.2,17.2v37c0,9.5,7.7,17.2,17.2,17.2l47,0v-12.8h-47c-2.4,0-4.4-2-4.4-4.4v-37c0-2.4,2-4.4,4.4-4.4h36.2
	c2.4,0,4.4,2,4.4,4.4v10c0,2.4-2,4.4-4.4,4.4l-27.8,0v12.8h27.8c9.5,0,17.2-7.7,17.2-17.2V284.4z M175.9,267.2l35.7,35.7l-35.7,35.7
	h16.9l35.7-35.7l-35.7-35.7H175.9z M182.2,380.9l-2.4,5.9c-0.1,0.2-0.2,0.2-0.4,0.2h-1.8c-0.2,0-0.3-0.1-0.2-0.3l7.2-17.5
	c0.8-1.9,1.5-4.1,2-6c0-0.2,0.2-0.3,0.4-0.3h2.1c0.2,0,0.3,0.1,0.3,0.3c0.5,1.9,1.3,4.1,2.1,6l7.2,17.5c0.1,0.2,0,0.3-0.2,0.3h-1.8
	c-0.2,0-0.3-0.1-0.4-0.2l-2.4-5.9H182.2z M193,378.8l-3.2-7.8c-0.6-1.6-1.2-3.4-1.5-4.7c-0.1-0.3-0.4-0.3-0.5,0
	c-0.2,1.2-0.8,3.1-1.5,4.7l-3.2,7.8H193z M226.2,386.5c-1.9,0.7-3.1,0.9-5.1,0.9c-6.4,0-10.3-4.8-10.3-12.4
	c0-7.7,3.9-12.5,10.3-12.5c2,0,3.2,0.2,5,0.9l1.5,0.5c0.2,0.1,0.2,0.2,0.2,0.4l-0.5,1.4c-0.1,0.2-0.2,0.3-0.4,0.2l-1.5-0.6
	c-1.4-0.5-2.5-0.7-4.3-0.7c-5,0-7.9,3.8-7.9,10.3c0,6.4,2.9,10.3,7.9,10.3c1.7,0,2.8-0.2,4.3-0.8l1.4-0.5c0.2-0.1,0.3,0,0.4,0.2
	l0.5,1.4c0.1,0.2,0,0.3-0.2,0.4L226.2,386.5z M241.4,362.5c6.3,0,10.2,4.8,10.2,12.5s-3.9,12.4-10.2,12.4c-6.3,0-10.2-4.8-10.2-12.4
	S235,362.5,241.4,362.5 M241.4,364.7c-4.9,0-7.8,3.8-7.8,10.3s2.9,10.3,7.8,10.3c4.9,0,7.8-3.8,7.8-10.3S246.3,364.7,241.4,364.7
	 M279.2,386.8c0,0.2-0.1,0.3-0.3,0.3h-1.7c-0.2,0-0.3-0.1-0.3-0.3v-15.3c0-1.6,0.1-3.3,0.2-4.7c0-0.4-0.3-0.6-0.5-0.1
	c-0.4,0.9-0.7,1.9-1.2,2.8l-4.8,10.4c-0.4,1-0.9,2.4-1.3,3.5c0,0.2-0.2,0.2-0.4,0.2h-1.6c-0.2,0-0.3-0.1-0.4-0.2
	c-0.4-1.1-0.9-2.5-1.4-3.5l-4.7-10.4c-0.5-1-0.8-1.9-1.2-2.8c-0.1-0.5-0.5-0.3-0.4,0.1c0.1,1.4,0.2,3.1,0.2,4.7v15.3
	c0,0.2-0.1,0.3-0.3,0.3h-1.7c-0.2,0-0.3-0.1-0.3-0.3v-23.5c0-0.2,0.1-0.3,0.3-0.3h2.8c0.2,0,0.3,0.1,0.4,0.3
	c0.3,0.9,0.7,1.9,1.1,2.8l5.2,11.5c0.4,0.9,0.8,2,1,2.9c0.1,0.4,0.4,0.4,0.5,0c0.3-0.9,0.6-1.9,1-2.8l5.2-11.5
	c0.4-0.8,0.8-1.9,1.1-2.8c0-0.2,0.2-0.3,0.3-0.3h2.8c0.2,0,0.3,0.1,0.3,0.3V386.8z M294.8,362.9c5.1,0,8,2.7,8,7.3
	c0,4.9-3.4,7.6-10,7.6h-4.5v9c0,0.2-0.1,0.3-0.3,0.3h-1.7c-0.2,0-0.3-0.1-0.3-0.3v-23.5c0-0.2,0.1-0.3,0.3-0.3H294.8z M288.3,375.7
	h4.5c5.1,0,7.6-1.9,7.6-5.5c0-3.3-2.1-5.2-5.6-5.2h-6.5V375.7z M309,380.9l-2.4,5.9c-0.1,0.2-0.2,0.2-0.4,0.2h-1.8
	c-0.2,0-0.3-0.1-0.2-0.3l7.2-17.5c0.8-1.9,1.5-4.1,2-6c0-0.2,0.2-0.3,0.4-0.3h2.1c0.2,0,0.3,0.1,0.4,0.3c0.5,1.9,1.3,4.1,2.1,6
	l7.2,17.5c0.1,0.2,0,0.3-0.2,0.3h-1.8c-0.2,0-0.3-0.1-0.4-0.2l-2.4-5.9H309z M319.8,378.8l-3.2-7.8c-0.6-1.6-1.2-3.4-1.5-4.7
	c-0.1-0.3-0.4-0.3-0.5,0c-0.2,1.2-0.8,3.1-1.5,4.7l-3.2,7.8H319.8z M349.1,386.8c0,0.2-0.1,0.3-0.3,0.3h-2.2c-0.2,0-0.3-0.1-0.3-0.2
	c-0.5-1-1.3-2.4-2-3.4l-10-14.7c-0.5-0.7-0.9-1.5-1.2-2.1c-0.1-0.3-0.5-0.2-0.4,0.1c0.1,0.9,0.2,2.1,0.2,3.3v16.6
	c0,0.2-0.1,0.3-0.3,0.3h-1.7c-0.2,0-0.3-0.1-0.3-0.3v-23.5c0-0.2,0.1-0.3,0.3-0.3h2.2c0.2,0,0.3,0.1,0.4,0.2c0.5,1,1.3,2.4,2,3.4
	l10,14.7c0.5,0.7,0.9,1.5,1.2,2.1c0.1,0.3,0.5,0.2,0.4-0.1c-0.2-0.9-0.2-2.1-0.2-3.3v-16.7c0-0.2,0.1-0.3,0.3-0.3h1.7
	c0.2,0,0.3,0.1,0.3,0.3V386.8z M368,372.6c-1.9,3.1-2.8,4.7-2.8,8v6.2c0,0.2-0.1,0.3-0.3,0.3h-1.7c-0.2,0-0.3-0.1-0.3-0.3v-6.2
	c0-3.2-0.9-4.9-2.8-8l-6-9.3c-0.1-0.2,0-0.4,0.2-0.4h1.9c0.2,0,0.3,0.1,0.4,0.2l5.2,8c0.8,1.3,1.3,2.3,2,3.8c0,0.1,0.1,0.2,0.2,0.4
	c0.1,0.1,0.3,0,0.4-0.2c0.7-1.7,1.3-2.7,2-4l5.2-8c0.1-0.1,0.2-0.2,0.4-0.2h1.9c0.2,0,0.3,0.2,0.2,0.4L368,372.6z M396.2,362.5
	c6.3,0,10.2,4.8,10.2,12.5s-3.9,12.4-10.2,12.4c-6.3,0-10.2-4.8-10.2-12.4S389.9,362.5,396.2,362.5 M396.2,364.7
	c-4.9,0-7.8,3.8-7.8,10.3s2.9,10.3,7.8,10.3c4.9,0,7.8-3.8,7.8-10.3S401.2,364.7,396.2,364.7 M425.4,374.4c0.2,0,0.3,0.1,0.3,0.3
	v1.5c0,0.2-0.1,0.3-0.3,0.3h-11v10.3c0,0.2-0.1,0.3-0.3,0.3h-1.7c-0.2,0-0.3-0.1-0.3-0.3v-23.5c0-0.2,0.1-0.3,0.3-0.3h15.1
	c0.2,0,0.4,0.1,0.3,0.3l-0.4,1.5c0,0.2-0.2,0.3-0.4,0.3h-12.6v9.4H425.4z"/>
</svg>
